<?xml version="1.0" encoding="UTF-8"?>
<svg id="Layer_1" xmlns="http://www.w3.org/2000/svg" version="1.1" viewBox="0 0 24 24">
  <!-- Generator: Adobe Illustrator 30.0.0, SVG Export Plug-In . SVG Version: 2.1.1 Build 123)  -->
  <path d="M10.03.04c1.25.06,2.61-.1,3.85,0,.49.04.91.36,1.07.83l.44,2.19c.74.29,1.45.66,2.1,1.11.09.06.52.41.56.42.04,0,.07,0,.1,0,.59-.19,1.17-.43,1.76-.61.64-.2,1.15-.1,1.54.47.54,1.05,1.28,2.07,1.8,3.13.39.78.11,1.21-.46,1.73-.44.4-.92.77-1.36,1.17.19,1.02.19,2.07,0,3.08l1.71,1.5c.34.43.36.91.12,1.39-.52,1.06-1.27,2.08-1.81,3.14-.3.48-.87.69-1.41.51l-1.97-.68c-.8.65-1.7,1.17-2.67,1.54-.08.07-.35,1.8-.42,2.07-.14.53-.51.88-1.06.95-1.24-.06-2.58.1-3.8,0-.49-.04-.91-.36-1.07-.83l-.44-2.19c-.74-.29-1.45-.65-2.1-1.11-.1-.07-.51-.41-.56-.42-.04,0-.07,0-.1,0-.57.19-1.13.42-1.7.59-.67.21-1.17.15-1.59-.45-.55-1.04-1.24-2.04-1.78-3.08-.26-.5-.28-.98.08-1.44l1.72-1.51c-.18-1.03-.17-2.08,0-3.1l-1.7-1.48c-.36-.45-.35-.94-.1-1.44.53-1.04,1.25-2.05,1.79-3.09.33-.48.8-.66,1.37-.52.67.17,1.34.5,2.01.69.8-.65,1.7-1.17,2.67-1.54.08-.07.35-1.8.42-2.07.13-.52.48-.86,1.01-.95ZM11.7,7.23c-3.73.22-5.79,4.51-3.61,7.57,2.04,2.85,6.38,2.61,8.08-.46,1.84-3.31-.72-7.33-4.48-7.11Z"/>
</svg>